<svg xmlns="http://www.w3.org/2000/svg" viewBox="0 0 62 62" shape-rendering="crispEdges" fill="#ff7a45" role="img" aria-label="Duckle"><rect x="7" y="1" width="12" height="1"/><rect x="25" y="1" width="6" height="1"/><rect x="6" y="2" width="13" height="1"/><rect x="23" y="2" width="13" height="1"/><rect x="6" y="3" width="13" height="1"/><rect x="22" y="3" width="17" height="1"/><rect x="6" y="4" width="13" height="1"/><rect x="22" y="4" width="19" height="1"/><rect x="6" y="5" width="13" height="1"/><rect x="22" y="5" width="21" height="1"/><rect x="6" y="6" width="13" height="1"/><rect x="22" y="6" width="22" height="1"/><rect x="6" y="7" width="13" height="1"/><rect x="22" y="7" width="24" height="1"/><rect x="6" y="8" width="13" height="1"/><rect x="22" y="8" width="25" height="1"/><rect x="6" y="9" width="13" height="1"/><rect x="22" y="9" width="26" height="1"/><rect x="6" y="10" width="13" height="1"/><rect x="22" y="10" width="5" height="1"/><rect x="34" y="10" width="15" height="1"/><rect x="6" y="11" width="13" height="1"/><rect x="22" y="11" width="2" height="1"/><rect x="37" y="11" width="12" height="1"/><rect x="6" y="12" width="13" height="1"/><rect x="22" y="12" width="1" height="1"/><rect x="39" y="12" width="11" height="1"/><rect x="6" y="13" width="13" height="1"/><rect x="30" y="13" width="4" height="1"/><rect x="40" y="13" width="11" height="1"/><rect x="6" y="14" width="13" height="1"/><rect x="27" y="14" width="10" height="1"/><rect x="42" y="14" width="9" height="1"/><rect x="6" y="15" width="13" height="1"/><rect x="25" y="15" width="14" height="1"/><rect x="43" y="15" width="9" height="1"/><rect x="6" y="16" width="13" height="1"/><rect x="24" y="16" width="16" height="1"/><rect x="43" y="16" width="9" height="1"/><rect x="6" y="17" width="13" height="1"/><rect x="24" y="17" width="17" height="1"/><rect x="44" y="17" width="9" height="1"/><rect x="6" y="18" width="13" height="1"/><rect x="23" y="18" width="19" height="1"/><rect x="45" y="18" width="8" height="1"/><rect x="6" y="19" width="13" height="1"/><rect x="22" y="19" width="20" height="1"/><rect x="45" y="19" width="9" height="1"/><rect x="6" y="20" width="13" height="1"/><rect x="22" y="20" width="2" height="1"/><rect x="29" y="20" width="6" height="1"/><rect x="38" y="20" width="5" height="1"/><rect x="46" y="20" width="8" height="1"/><rect x="6" y="21" width="13" height="1"/><rect x="22" y="21" width="1" height="1"/><rect x="29" y="21" width="5" height="1"/><rect x="40" y="21" width="4" height="1"/><rect x="46" y="21" width="8" height="1"/><rect x="6" y="22" width="13" height="1"/><rect x="25" y="22" width="2" height="1"/><rect x="29" y="22" width="5" height="1"/><rect x="36" y="22" width="2" height="1"/><rect x="41" y="22" width="3" height="1"/><rect x="47" y="22" width="8" height="1"/><rect x="6" y="23" width="13" height="1"/><rect x="28" y="23" width="7" height="1"/><rect x="41" y="23" width="4" height="1"/><rect x="47" y="23" width="8" height="1"/><rect x="6" y="24" width="13" height="1"/><rect x="27" y="24" width="2" height="1"/><rect x="33" y="24" width="3" height="1"/><rect x="42" y="24" width="3" height="1"/><rect x="47" y="24" width="8" height="1"/><rect x="6" y="25" width="13" height="1"/><rect x="25" y="25" width="4" height="1"/><rect x="33" y="25" width="4" height="1"/><rect x="43" y="25" width="2" height="1"/><rect x="48" y="25" width="7" height="1"/><rect x="6" y="26" width="13" height="1"/><rect x="24" y="26" width="4" height="1"/><rect x="29" y="26" width="9" height="1"/><rect x="43" y="26" width="3" height="1"/><rect x="48" y="26" width="7" height="1"/><rect x="6" y="27" width="13" height="1"/><rect x="23" y="27" width="6" height="1"/><rect x="33" y="27" width="6" height="1"/><rect x="43" y="27" width="3" height="1"/><rect x="48" y="27" width="7" height="1"/><rect x="6" y="28" width="13" height="1"/><rect x="23" y="28" width="16" height="1"/><rect x="42" y="28" width="4" height="1"/><rect x="48" y="28" width="8" height="1"/><rect x="6" y="29" width="13" height="1"/><rect x="24" y="29" width="15" height="1"/><rect x="42" y="29" width="4" height="1"/><rect x="48" y="29" width="8" height="1"/><rect x="6" y="30" width="13" height="1"/><rect x="25" y="30" width="13" height="1"/><rect x="41" y="30" width="5" height="1"/><rect x="48" y="30" width="8" height="1"/><rect x="6" y="31" width="13" height="1"/><rect x="26" y="31" width="11" height="1"/><rect x="41" y="31" width="5" height="1"/><rect x="48" y="31" width="8" height="1"/><rect x="6" y="32" width="13" height="1"/><rect x="28" y="32" width="7" height="1"/><rect x="40" y="32" width="6" height="1"/><rect x="48" y="32" width="8" height="1"/><rect x="6" y="33" width="11" height="1"/><rect x="38" y="33" width="8" height="1"/><rect x="48" y="33" width="8" height="1"/><rect x="6" y="34" width="9" height="1"/><rect x="36" y="34" width="10" height="1"/><rect x="48" y="34" width="8" height="1"/><rect x="6" y="35" width="8" height="1"/><rect x="18" y="35" width="28" height="1"/><rect x="48" y="35" width="8" height="1"/><rect x="6" y="36" width="7" height="1"/><rect x="16" y="36" width="30" height="1"/><rect x="48" y="36" width="7" height="1"/><rect x="6" y="37" width="7" height="1"/><rect x="15" y="37" width="31" height="1"/><rect x="48" y="37" width="7" height="1"/><rect x="6" y="38" width="6" height="1"/><rect x="15" y="38" width="31" height="1"/><rect x="48" y="38" width="7" height="1"/><rect x="6" y="39" width="6" height="1"/><rect x="14" y="39" width="31" height="1"/><rect x="48" y="39" width="7" height="1"/><rect x="6" y="40" width="6" height="1"/><rect x="14" y="40" width="31" height="1"/><rect x="47" y="40" width="8" height="1"/><rect x="6" y="41" width="6" height="1"/><rect x="15" y="41" width="30" height="1"/><rect x="47" y="41" width="7" height="1"/><rect x="6" y="42" width="7" height="1"/><rect x="15" y="42" width="29" height="1"/><rect x="47" y="42" width="7" height="1"/><rect x="6" y="43" width="7" height="1"/><rect x="16" y="43" width="28" height="1"/><rect x="46" y="43" width="8" height="1"/><rect x="6" y="44" width="8" height="1"/><rect x="18" y="44" width="25" height="1"/><rect x="46" y="44" width="7" height="1"/><rect x="6" y="45" width="9" height="1"/><rect x="24" y="45" width="19" height="1"/><rect x="45" y="45" width="8" height="1"/><rect x="6" y="46" width="11" height="1"/><rect x="29" y="46" width="13" height="1"/><rect x="45" y="46" width="8" height="1"/><rect x="6" y="47" width="12" height="1"/><rect x="27" y="47" width="14" height="1"/><rect x="44" y="47" width="8" height="1"/><rect x="6" y="48" width="12" height="1"/><rect x="21" y="48" width="19" height="1"/><rect x="43" y="48" width="9" height="1"/><rect x="6" y="49" width="12" height="1"/><rect x="21" y="49" width="18" height="1"/><rect x="43" y="49" width="8" height="1"/><rect x="6" y="50" width="12" height="1"/><rect x="21" y="50" width="17" height="1"/><rect x="42" y="50" width="8" height="1"/><rect x="6" y="51" width="12" height="1"/><rect x="21" y="51" width="16" height="1"/><rect x="41" y="51" width="9" height="1"/><rect x="6" y="52" width="12" height="1"/><rect x="21" y="52" width="14" height="1"/><rect x="39" y="52" width="10" height="1"/><rect x="6" y="53" width="12" height="1"/><rect x="21" y="53" width="11" height="1"/><rect x="38" y="53" width="10" height="1"/><rect x="6" y="54" width="12" height="1"/><rect x="36" y="54" width="11" height="1"/><rect x="6" y="55" width="12" height="1"/><rect x="33" y="55" width="13" height="1"/><rect x="6" y="56" width="12" height="1"/><rect x="21" y="56" width="23" height="1"/><rect x="6" y="57" width="12" height="1"/><rect x="21" y="57" width="22" height="1"/><rect x="6" y="58" width="12" height="1"/><rect x="21" y="58" width="20" height="1"/><rect x="6" y="59" width="12" height="1"/><rect x="21" y="59" width="17" height="1"/><rect x="7" y="60" width="11" height="1"/><rect x="21" y="60" width="13" height="1"/></svg>
