<svg xmlns="http://www.w3.org/2000/svg" viewBox="0 0 24 24" role="img" aria-label="DuckLake">
  <circle cx="17.5" cy="6.5" r="3" fill="#ffd000"/>
  <g fill="none" stroke="#2eafff" stroke-width="2" stroke-linecap="round">
    <path d="M2.5 13c1.3 0 1.3 1.2 2.7 1.2S6.8 13 8.2 13s1.3 1.2 2.7 1.2S12.6 13 14 13s1.3 1.2 2.7 1.2S18.4 13 19.8 13"/>
    <path d="M2.5 17c1.3 0 1.3 1.2 2.7 1.2S6.8 17 8.2 17s1.3 1.2 2.7 1.2S12.6 17 14 17s1.3 1.2 2.7 1.2S18.4 17 19.8 17"/>
    <path d="M2.5 21c1.3 0 1.3 1.2 2.7 1.2S6.8 21 8.2 21s1.3 1.2 2.7 1.2S12.6 21 14 21s1.3 1.2 2.7 1.2S18.4 21 19.8 21"/>
  </g>
</svg>
